<mxfile host="65bd71144e">
    <diagram id="0Lwkkdsp0E-snftAg-DL" name="Page-1">
        <mxGraphModel dx="691" dy="401" grid="1" gridSize="10" guides="1" tooltips="1" connect="1" arrows="1" fold="1" page="1" pageScale="1" pageWidth="850" pageHeight="1100" math="0" shadow="0">
            <root>
                <mxCell id="0"/>
                <mxCell id="1" parent="0"/>
                <mxCell id="2" value="2. ManuaÅ‚" style="text;strokeColor=none;fillColor=none;html=1;fontSize=24;fontStyle=1;verticalAlign=middle;align=center;shadow=0;glass=0;fontColor=#FFCC99;" vertex="1" parent="1">
                    <mxGeometry width="130" height="40" as="geometry"/>
                </mxCell>
            </root>
        </mxGraphModel>
    </diagram>
</mxfile>